<svg width="1066" height="1339" viewBox="0 0 1066 1339" fill="none" xmlns="http://www.w3.org/2000/svg">
<path fill-rule="evenodd" clip-rule="evenodd" d="M355.39 232C241.02 368.813 220.77 411.347 261.27 480.17C290.21 521.05 345.52 551.82 530.74 502.65C713.19 441.99 910.72 475.99 1020.48 623.35C1121.88 760.16 1044.55 930.38 880.63 1062.42C645.01 1252.85 416.22 1198.44 409.29 1119.69C426.8 1061.63 478.53 1121.29 667.13 933.57C741.94 823.8 784.12 698.91 729.21 666.3C664.75 581.19 501.61 893.79 423.62 852.43C345.63 811.07 188.28 691.76 103.7 613.8L88 265.408L355.39 232Z" fill="#FF8674"/>
<path fill-rule="evenodd" clip-rule="evenodd" d="M505.1 219.132C355.72 227.775 262.36 332.186 234.6 359.982C115.61 547.41 267.91 682.42 420.22 522C485.27 407.633 536.03 312.331 572.52 221.794C548.93 218.617 526.44 217.898 505.1 219.132ZM459.82 0.0040095C646.23 -0.790991 879.18 122.308 777.12 357.386C679.28 532.11 642.43 613.56 526.45 824.37C325.04 1193.74 430.73 1333.44 272.61 1339C195.4 1315.97 192.49 1199.22 186.94 1124.57C209.94 906.96 308.83 804.51 248.81 752.89C139.87 765.6 59.49 663.94 36.22 605.17C-36.23 447.92 10.04 305.764 86.99 190.608C135.37 113.572 273.4 0.79801 459.82 0.0040095Z" fill="white"/>
</svg>
